<svg width="57" height="57" viewBox="0 0 57 57" fill="none" xmlns="http://www.w3.org/2000/svg">
<g clip-path="url(#clip0_2052_21674)">
<rect width="57" height="57" fill="black"/>
<path d="M26.8936 26.4365C27.4393 25.6179 27.7122 24.6628 27.7122 23.5714C27.7122 20.7063 25.2564 18.5234 22.5278 18.5234H14.6148C14.2055 18.5234 13.9326 18.7963 13.9326 19.2056V36.5324C13.9326 36.9417 14.2055 37.2145 14.6148 37.2145H23.3464C26.6207 37.2145 29.3494 34.6223 29.3494 31.348C29.3494 29.3015 28.3943 27.5279 26.8936 26.4365ZM17.3434 22.0706H22.5278C23.4828 22.0706 24.165 22.8892 24.165 23.7078C24.165 24.6629 23.3464 25.345 22.5278 25.345H17.3434V22.0706ZM23.4828 33.8037H17.3434V28.8922H23.4828C24.8471 28.8922 25.9386 29.9837 25.9386 31.348C25.9386 32.7123 24.8471 33.8037 23.4828 33.8037Z" fill="white"/>
<path d="M44.4932 30.1201C44.4932 26.0272 41.3553 22.7528 37.3988 22.7528C33.4423 22.7528 30.3044 26.0272 30.3044 30.1201C30.3044 34.213 33.4423 37.4874 37.3988 37.4874C39.7181 37.4874 41.901 36.2595 43.2653 34.213C43.4018 33.9402 43.5382 33.6673 43.6746 33.3945C43.8111 33.258 43.6746 32.9852 43.4018 32.9852H39.991C39.8546 32.9852 39.8546 32.9852 39.7181 33.1216C39.036 33.8038 38.2174 34.0766 37.3988 34.0766C35.6252 34.0766 34.2609 32.8487 33.8516 31.0751H43.8111C44.2204 31.0751 44.4932 30.8023 44.4932 30.393V30.1201ZM37.3988 26.3C38.6267 26.3 39.7181 26.9822 40.4003 28.0736H34.3973C34.943 26.9822 36.1709 26.3 37.3988 26.3Z" fill="white"/>
<path d="M40.2639 21.9342H33.988C33.7152 21.9342 33.4423 21.6614 33.4423 21.3885V19.8878C33.4423 19.6149 33.7152 19.342 33.988 19.342H40.2639C40.5367 19.342 40.8096 19.6149 40.8096 19.8878V21.5249C40.8096 21.6614 40.6732 21.9342 40.2639 21.9342Z" fill="white"/>
</g>
<defs>
<clipPath id="clip0_2052_21674">
<rect width="57" height="57" rx="10" fill="white"/>
</clipPath>
</defs>
</svg>
