<svg width="57" height="57" viewBox="0 0 57 57" fill="none" xmlns="http://www.w3.org/2000/svg">
<g clip-path="url(#clip0_2052_21659)">
<rect width="57" height="57" fill="black"/>
<path d="M29.9003 38.4734C19.1892 38.4734 13.0798 30.9847 12.8252 18.5234H18.1905C18.3668 27.6697 22.3222 31.5439 25.4553 32.3427V18.5234H30.5073V26.4116C33.6012 26.0721 36.8517 22.4775 37.9483 18.5234H43.0003C42.5871 20.5741 41.7634 22.5158 40.5808 24.227C39.3981 25.9382 37.882 27.3821 36.1272 28.4685C38.086 29.4611 39.8161 30.8661 41.2034 32.5907C42.5906 34.3153 43.6035 36.3203 44.1752 38.4734H38.614C38.1009 36.6033 37.0579 34.9292 35.6158 33.661C34.1737 32.3927 32.3966 31.5868 30.5073 31.3442V38.4734H29.9003Z" fill="white"/>
</g>
<defs>
<clipPath id="clip0_2052_21659">
<rect width="57" height="57" rx="10" fill="white"/>
</clipPath>
</defs>
</svg>
